<?xml version="1.0" encoding="UTF-8" standalone="no"?>
<svg
   width="105"
   height="122"
   fill="none"
   version="1.1"
   id="svg8"
   sodipodi:docname="logo.svg"
   inkscape:export-filename="C:\Users\Avell\Documents\Front-end\Portifolio\7-days-of-code\logo.png"
   inkscape:export-xdpi="96"
   inkscape:export-ydpi="96"
   inkscape:version="1.1.2 (b8e25be833, 2022-02-05)"
   xmlns:inkscape="http://www.inkscape.org/namespaces/inkscape"
   xmlns:sodipodi="http://sodipodi.sourceforge.net/DTD/sodipodi-0.dtd"
   xmlns:xlink="http://www.w3.org/1999/xlink"
   xmlns="http://www.w3.org/2000/svg"
   xmlns:svg="http://www.w3.org/2000/svg">
  <defs
     id="defs12">
    <mask
       maskUnits="userSpaceOnUse"
       id="mask22323">
      <rect
         style="fill:#dfdfe9;fill-opacity:1"
         id="rect22325"
         width="70.342896"
         height="117.32191"
         x="23.615116"
         y="38.939819" />
    </mask>
    <mask
       maskUnits="userSpaceOnUse"
       id="mask22323-2">
      <rect
         style="fill:#dfdfe9;fill-opacity:1"
         id="rect22325-6"
         width="70.342896"
         height="117.32191"
         x="23.615116"
         y="38.939819" />
    </mask>
    <clipPath
       clipPathUnits="userSpaceOnUse"
       id="clipPath22591">
      <use
         x="0"
         y="0"
         xlink:href="#g22587"
         id="use22593"
         width="100%"
         height="100%" />
    </clipPath>
  </defs>
  <sodipodi:namedview
     id="namedview10"
     pagecolor="#ffffff"
     bordercolor="#666666"
     borderopacity="1.0"
     inkscape:pageshadow="2"
     inkscape:pageopacity="0.0"
     inkscape:pagecheckerboard="0"
     showgrid="false"
     showguides="true"
     inkscape:guide-bbox="true"
     width="358px"
     inkscape:zoom="2.8284271"
     inkscape:cx="47.199378"
     inkscape:cy="125.68823"
     inkscape:window-width="1350"
     inkscape:window-height="2321"
     inkscape:window-x="-1359"
     inkscape:window-y="-9"
     inkscape:window-maximized="1"
     inkscape:current-layer="svg8">
    <sodipodi:guide
       position="49.491253,121.63751"
       orientation="1,0"
       id="guide22528" />
    <sodipodi:guide
       position="83.657803,96.515045"
       orientation="0,-1"
       id="guide22530" />
  </sodipodi:namedview>
  <g
     id="g22521"
     transform="matrix(1,0,0,0.62570753,0,-0.880468)">
    <g
       id="g22516">
      <g
         id="g22512">
        <g
           id="g22526">
          <path
             d="M 103.12602,3.807 H 2.1279948 v 184.28 H 103.12631 V 3.807 Z"
             fill="#000000"
             id="path2"
             style="stroke-width:0.537062" />
          <path
             d="M 105.30596,195.354 H 0 V 0 H 105.3579 V 195.354 Z M 2.1279948,188.087 H 103.12631 V 7.267 H 2.1279948 Z"
             fill="#dfdfe9"
             id="path4"
             style="stroke-width:0.541734" />
        </g>
      </g>
    </g>
  </g>
  <path
     d="m 97.414,42.22 c 0,-0.865 0.707,-1.557 1.591,-1.557 h 20.868 c 16.978,0 30.949,13.496 30.949,30.108 0,16.784 -13.971,30.28 -30.949,30.28 H 99.005 c -0.884,0 -1.591,-0.692 -1.591,-1.557 z m 21.575,48.276 c 11.495,0 19.807,-8.478 19.807,-19.725 0,-11.248 -8.312,-19.726 -19.807,-19.726 h -10.08 v 39.451 z m 35.193,8.306 27.411,-58.14 c 0.354,-0.518 0.707,-0.864 1.415,-0.864 h 0.884 c 0.884,0 1.238,0.346 1.415,0.865 l 27.234,58.139 c 0.531,1.211 -0.177,2.249 -1.415,2.249 h -7.604 c -1.238,0 -1.945,-0.519 -2.476,-1.73 l -4.244,-9.344 h -26.35 l -4.245,9.344 c -0.354,0.865 -1.238,1.73 -2.476,1.73 h -7.604 c -1.769,0 -2.476,-1.038 -1.945,-2.25 z M 192.204,80.46 183.361,61.427 h -0.353 l -8.666,19.033 z m 35.723,-8.478 -20.16,-28.897 c -0.708,-1.211 0,-2.422 1.414,-2.422 h 9.02 c 0.707,0 1.061,0.346 1.414,0.692 l 14.148,19.899 14.148,-19.9 c 0.177,-0.345 0.707,-0.691 1.415,-0.691 h 9.019 c 1.415,0 2.122,1.384 1.415,2.422 L 239.422,71.81 v 27.51 c 0,0.865 -0.707,1.557 -1.591,1.557 h -8.135 c -0.885,0 -1.592,-0.692 -1.592,-1.557 V 71.98 h -0.177 z m 36.077,20.591 3.183,-5.364 c 0.707,-1.212 2.122,-1.212 3.006,-0.52 0.354,0.347 7.605,5.365 13.264,5.365 4.598,0 7.958,-2.942 7.958,-6.576 0,-4.325 -3.714,-7.44 -11.141,-10.382 -8.312,-3.287 -16.624,-8.478 -16.624,-18.687 0,-7.614 5.836,-16.611 19.807,-16.611 9.019,0 15.916,4.498 17.685,5.71 0.884,0.519 1.238,1.903 0.53,2.768 l -3.36,4.845 c -0.707,1.038 -1.945,1.73 -3.006,1.038 -0.708,-0.346 -7.428,-4.672 -12.203,-4.672 -4.951,0 -7.781,3.288 -7.781,6.057 0,3.98 3.183,6.748 10.434,9.69 8.489,3.287 18.392,8.305 18.392,19.552 0,8.825 -7.781,17.13 -20.337,17.13 -11.142,0 -17.685,-5.017 -19.454,-6.748 -0.707,-0.692 -1.238,-1.211 -0.353,-2.595 z M 81.498,116.797 c 10.964,0 19.806,8.652 19.806,19.38 0,10.728 -8.842,19.38 -19.806,19.38 -10.965,0 -19.807,-8.479 -19.807,-19.38 0.177,-10.728 8.842,-19.38 19.807,-19.38 z m 0,31.665 c 6.897,0 12.733,-5.537 12.733,-12.285 0,-6.748 -5.66,-12.458 -12.733,-12.458 -7.074,0 -12.557,5.71 -12.557,12.458 0,6.748 5.66,12.285 12.557,12.285 z m 27.057,-30.107 c 0,-0.519 0.354,-1.038 1.061,-1.038 h 22.46 c 0.53,0 1.061,0.519 1.061,1.038 v 4.499 c 0,0.519 -0.354,1.038 -1.061,1.038 h -16.27 v 10.036 h 13.617 c 0.531,0 1.061,0.519 1.061,1.038 v 4.499 c 0,0.519 -0.53,1.038 -1.061,1.038 h -13.617 v 13.67 c 0,0.519 -0.531,1.038 -1.061,1.038 h -5.129 c -0.53,0 -1.061,-0.519 -1.061,-1.038 z m 65.08,-1.558 c 5.483,0 9.55,1.731 13.264,5.018 0.53,0.346 0.53,1.038 0,1.557 l -3.36,3.461 c -0.354,0.346 -0.884,0.346 -1.415,0 -2.299,-2.076 -5.305,-3.114 -8.489,-3.114 -7.073,0 -12.202,5.71 -12.202,12.631 0,6.748 5.305,12.458 12.379,12.458 3.36,0 6.19,-1.211 8.489,-3.114 0.354,-0.346 1.061,-0.346 1.415,0 l 3.36,3.46 c 0.353,0.346 0.353,1.039 0,1.385 -3.714,3.633 -8.489,5.191 -13.441,5.191 -10.964,0 -19.807,-8.479 -19.807,-19.38 -0.176,-10.901 8.843,-19.553 19.807,-19.553 z m 37.492,0 c 10.964,0 19.807,8.652 19.807,19.38 0,10.728 -8.843,19.38 -19.807,19.38 -10.965,0 -19.807,-8.479 -19.807,-19.38 0,-10.728 8.666,-19.38 19.807,-19.38 z m 0,31.665 c 6.897,0 12.733,-5.537 12.733,-12.285 0,-6.748 -5.659,-12.458 -12.733,-12.458 -7.074,0 -12.556,5.71 -12.556,12.458 -0.177,6.748 5.482,12.285 12.556,12.285 z m 27.057,-30.107 c 0,-0.519 0.354,-1.039 1.061,-1.039 h 13.087 c 10.611,0 19.276,8.479 19.276,18.861 0,10.382 -8.665,18.861 -19.276,18.861 h -13.087 c -0.53,0 -1.061,-0.519 -1.061,-1.039 z m 13.264,30.107 c 7.074,0 12.379,-5.191 12.379,-12.285 0,-6.921 -5.305,-12.285 -12.379,-12.285 h -6.19 v 24.57 z m 27.235,-30.107 c 0,-0.519 0.354,-1.039 1.061,-1.039 h 22.46 c 0.53,0 1.061,0.52 1.061,1.039 v 4.498 c 0,0.52 -0.531,1.039 -1.061,1.039 h -16.27 v 8.824 h 13.617 c 0.53,0 1.061,0.519 1.061,1.039 v 4.498 c 0,0.52 -0.531,1.039 -1.061,1.039 h -13.617 v 9.343 h 16.27 c 0.53,0 1.061,0.52 1.061,1.039 v 4.498 c 0,0.52 -0.531,1.039 -1.061,1.039 h -22.46 c -0.531,0 -1.061,-0.519 -1.061,-1.039 z M 78.314,40.663 H 26.145 c -0.708,0 -1.062,0.519 -1.062,1.038 V 57.62 c 0,0.692 0.531,1.038 1.062,1.038 h 11.141 c 0.707,0 1.061,-0.519 1.061,-1.038 v -6.056 h 27.588 v 27.858 c 0,0.173 0,0.346 -0.177,0.692 -0.176,0.346 -0.353,0.346 -0.53,0.52 l -12.733,10.9 c -2.3,1.904 -4.598,3.98 -7.074,5.884 -3.36,2.941 -6.897,5.883 -10.257,8.651 -0.177,0 -0.354,0.173 -0.354,0.519 -0.177,0.346 -0.177,0.519 -0.177,0.693 v 47.238 c 0,0 0,0.346 0.177,0.692 0.354,0.346 0.707,0.346 0.707,0.346 h 11.496 c 0,0 0.353,0.173 0.707,-0.173 0.354,-0.346 0.177,-0.692 0.177,-0.692 v -47.758 c 0.177,-0.173 0.177,-0.346 0.354,-0.346 3.536,-3.114 7.25,-6.056 10.787,-9.17 2.3,-1.904 4.598,-3.98 7.074,-5.884 4.068,-3.46 8.312,-6.92 12.38,-10.382 l 0.353,-0.346 c 0.177,-0.173 0.177,-0.346 0.177,-0.519 v -38.24 c 0,0 0.177,-0.519 -0.354,-1.038 0.177,-0.52 -0.354,-0.346 -0.354,-0.346 z"
     fill="#dfdfe9"
     id="path6"
     mask="url(#mask22323)"
     transform="matrix(1,0,0,0.62570753,1.2402529,1.120017)" />
  <g
     id="g22589"
     clip-path="url(#clipPath22591)">
    <g
       inkscape:label="Clip"
       id="g22587" />
  </g>
  <rect
     style="fill:#000000;fill-opacity:0;stroke:#000000;stroke-width:0.791017;stroke-opacity:1"
     id="rect22617"
     width="46.727779"
     height="31.910208"
     x="49.491253"
     y="67.812927" />
  <rect
     style="fill:none;fill-opacity:0;stroke:none;stroke-width:0.791017;stroke-opacity:1"
     id="rect22882"
     width="46.727779"
     height="31.910204"
     x="49.491253"
     y="67.812927" />
  <rect
     style="fill:none;fill-opacity:0;stroke:none;stroke-opacity:1"
     id="rect23016"
     width="59.037788"
     height="8.2904129"
     x="85.918823"
     y="111.04129" />
  <rect
     style="fill:#000000;fill-opacity:1;stroke:none;stroke-width:0.855967;stroke-opacity:1"
     id="rect23018"
     width="36.930019"
     height="26.539591"
     x="59.289013"
     y="73.183548" />
</svg>
